<svg width="422" height="139" viewBox="0 0 422 139" fill="none" xmlns="http://www.w3.org/2000/svg">
<path d="M326.1 136.188L346.108 42.1138H361.377L353.304 81.2528H397.533L405.957 42.1138H421.402L401.569 136.188H385.949L394.724 94.0651H350.496L341.545 136.188H326.1Z" fill="#151516"/>
<path d="M239.641 45.624H253.682V91.7834L252.278 114.951H252.98L298.437 45.624H311.601V136.188H297.56V90.0283L298.964 66.8609H298.262L252.804 136.188H239.641V45.624Z" fill="#151516"/>
<path d="M133.329 126.71H145.264V54.3996H133.329V44.922H176.505V54.3996H164.921V84.9385H177.734L186.509 65.4568C190.254 57.1492 194.056 51.2989 197.918 47.9057C201.779 44.5125 206.167 42.8159 211.081 42.8159C215.176 42.8159 218.452 44.0444 220.91 46.5016C223.367 48.8417 224.595 51.8839 224.595 55.6282C224.595 59.3724 223.484 62.4146 221.261 64.7547C219.154 67.0949 216.463 68.2649 213.187 68.2649C210.028 68.2649 207.512 67.3874 205.64 65.6323C203.768 63.7602 202.598 61.2445 202.13 58.0853H201.428C200.375 59.4894 199.263 61.186 198.093 63.1751C196.923 65.1643 195.753 67.4459 194.583 70.0201L186.509 88.2732C190.254 88.6242 193.354 89.6773 195.811 91.4324C198.386 93.0705 200.609 95.6447 202.481 99.1549L218.628 126.71H227.403V136.188H201.603L177.734 94.4161H164.921V126.71H176.505V136.188H133.329V126.71Z" fill="#151516"/>
<path d="M81.4468 138.294C75.9474 138.294 71.0916 137.358 66.8793 135.486C62.7841 133.614 59.3324 131.039 56.5242 127.763C53.716 124.37 51.6099 120.392 50.2058 115.828C48.8017 111.148 48.0997 106 48.0997 100.383C48.0997 91.6079 49.2698 83.7099 51.6099 76.6895C53.95 69.669 57.1677 63.7017 61.263 58.7874C65.4753 53.8731 70.3311 50.1288 75.8304 47.5547C81.4468 44.8635 87.4726 43.5179 93.9081 43.5179C102.567 43.5179 109.353 45.5655 114.267 49.6608C119.182 53.639 122.399 58.6118 123.92 64.5792L115.496 67.7384C113.858 62.1221 111.108 58.1438 107.247 55.8037C103.503 53.3465 98.7054 52.1179 92.855 52.1179C84.1964 52.1179 77.0005 54.9261 71.2671 60.5425C65.6508 66.0418 62.0236 73.8813 60.3854 84.061L58.8059 93.8896C58.4548 95.8787 58.2208 97.5168 58.1038 98.8039C57.9868 99.974 57.9283 101.261 57.9283 102.665C57.9283 111.09 60.0344 117.701 64.2467 122.498C68.459 127.295 74.5433 129.694 82.4998 129.694C85.191 129.694 87.7652 129.343 90.2223 128.641C92.7965 127.939 95.3706 126.71 97.9448 124.955C100.519 123.2 103.152 120.86 105.843 117.935C108.534 114.892 111.401 111.148 114.443 106.702L121.639 110.739C118.948 115.068 116.198 118.929 113.39 122.322C110.582 125.716 107.539 128.641 104.263 131.098C101.104 133.438 97.6523 135.193 93.9081 136.363C90.1638 137.65 86.0101 138.294 81.4468 138.294Z" fill="#151516"/>
<path d="M72.2081 0L65.274 40.5267L91.5424 72.1567L50.9932 65.2413L19.3343 91.5048L26.2685 50.9782L0 19.3481L40.5492 26.2635L72.2081 0Z" fill="#A6FF47"/>
</svg>
